inDegrees=yes
name=IK-live
DataType=double
version=3
OpenSimVersion=4.1
endheader
time	pelvis_tilt	pelvis_list	pelvis_rotation	pelvis_tx	pelvis_ty	pelvis_tz	hip_flexion_r	hip_adduction_r	hip_rotation_r	knee_angle_r	ankle_angle_r	subtalar_angle_r	mtp_angle_r	hip_flexion_l	hip_adduction_l	hip_rotation_l	knee_angle_l	ankle_angle_l	subtalar_angle_l	mtp_angle_l	lumbar_extension	lumbar_bending	lumbar_rotation	neck_flex	neck_latbend	neck_rot	arm_flex_r	arm_add_r	arm_rot_r	elbow_flex_r	pro_sup_r	wrist_flex_r	wrist_dev_r	arm_flex_l	arm_add_l	arm_rot_l	elbow_flex_l	pro_sup_l	wrist_flex_l	wrist_dev_l
108.1627561	-365.0392586493127	322.9168168817219	-607.0124853243032	0.2341366603171506	0.04326292228651554	-1.326684523481465	384.6419866974116	-19.23981234691981	-19.84451891829273	5.899560354604904	2.451982624139334	1.987972377786656	0	382.9817351709785	18.27433004717894	-19.42960534750255	9.793848132074926	-0.4439473045988533	4.250290820099795	0	-21.37711699760957	1.659277491615732	3.206407148933037	0	0	0	89.92683064862644	-14.99999169198638	-9.330357688685224e-05	75.00017554882416	45.00000025534052	0	5.000000137526117	89.97076752397624	-15.0000831386115	-8.502406740379243e-05	75.00017555520368	45.00000025534052	0	5.000000137526117
108.3291379	-383.31552872022	384.2789286384429	-597.7660307054763	0.2341366603171506	0.04326292228651554	-1.326684523481465	319.5053063079507	-7.194702873961346	-28.37043768387078	5.899560354604904	2.451982624139334	1.987972377786656	0	318.0780726069105	6.01572467836686	-11.2760400825197	9.793848132074926	-0.4439473045988533	4.250290820099795	0	-21.37711699760957	1.659277491615732	3.206407148933037	0	0	0	89.92685686867767	-14.99999170067968	-9.317080291369036e-05	75.00017554943155	45.00000025534052	0	5.000000137526117	89.97077799953226	-15.00008305149769	-8.490307542607947e-05	75.00017555579812	45.00000025534052	0	5.000000137526117
108.4960389	-419.3500493539299	423.2256596248051	-560.941372264119	0.2341366603171506	0.04326292228651554	-1.326684523481465	275.2420070407161	6.477642628055968	-22.07885384822045	5.899560354604904	2.451982624139334	1.987972377786656	0	273.6972269582695	-7.486420619375559	-17.92570850754709	9.793848132074926	-0.4439473045988533	4.250290820099795	0	-21.37711699760957	1.659277491615732	3.206407148933037	0	0	0	89.92687576785967	-14.99999170694279	-9.307516590627903e-05	75.00017554986886	45.00000025534052	0	5.000000137526117	89.97078555022074	-15.00008298873619	-8.481592499618114e-05	75.0001755562261	45.00000025534052	0	5.000000137526117
108.6460656	-412.6597654125505	418.6106179741441	-568.0118042769948	0.2341366603171506	0.04326292228651554	-1.326684523481465	280.3734280476029	4.889262075028235	-24.74701900724753	5.899560354604904	2.451982624139334	1.987972377786656	0	278.8829437795575	-5.963579846508425	-15.20820285754521	9.793848132074926	-0.4439473045988533	4.250290820099795	0	-21.37711699760957	1.659277491615732	3.206407148933037	0	0	0	89.92687693456709	-14.99999170732629	-9.306932137010101e-05	75.00017554989556	45.00000025534052	0	5.000000137526117	89.97078601634902	-15.0000829848929	-8.481059908874325e-05	75.00017555625217	45.00000025534052	0	5.000000137526117
108.8127927	-376.8687020080559	379.8490482415741	-595.0351657480226	0.2341366603171506	0.04326292228651554	-1.326684523481465	326.2928092767693	-2.069727661379986	-30.97163754682836	5.899560354604904	2.451982624139334	1.987972377786656	0	324.9331112423442	0.832545499177029	-8.806141462167524	9.793848132074926	-0.4439473045988533	4.250290820099795	0	-21.37711699760957	1.659277491615732	3.206407148933037	0	0	0	89.92688824351801	-14.99999171106635	-9.301225743627051e-05	75.00017555015623	45.00000025534052	0	5.000000137526117	89.97079053455336	-15.00008294741417	-8.475859885825955e-05	75.00017555650719	45.00000025534052	0	5.000000137526117
108.9797023	-365.784664689969	344.5971104471341	-603.2198861189197	0.2341366603171506	0.04326292228651554	-1.326684523481465	362.9683572233325	-11.97043949602855	-26.05159069940322	5.899560354604904	2.451982624139334	1.987972377786656	0	361.4830656915283	10.84940517310685	-13.46826299855723	9.793848132074926	-0.4439473045988533	4.250290820099795	0	-21.37711699760957	1.659277491615732	3.206407148933037	0	0	0	89.92688911704424	-14.99999171135375	-9.300787729240594e-05	75.00017555017619	45.00000025534052	0	5.000000137526117	89.97079088354859	-15.00008294453424	-8.475460739633652e-05	75.00017555652668	45.00000025534052	0	5.000000137526117
109.1303106	-360.1819131681938	317.4792415941588	-605.0578123295643	0.2341366603171506	0.04326292228651554	-1.326684523481465	391.2702299994548	-17.63194514705504	-19.37879894147246	5.899560354604904	2.451982624139334	1.987972377786656	0	389.6242132368442	16.68085459178275	-19.94557671623556	9.793848132074926	-0.4439473045988533	4.250290820099795	0	-21.37711699760957	1.659277491615732	3.206407148933037	0	0	0	89.92689034212468	-14.99999171175828	-9.300170527183835e-05	75.00017555020445	45.00000025534052	0	5.000000137526117	89.97079137299833	-15.00008294048056	-8.474898308473471e-05	75.00017555655425	45.00000025534052	0	5.000000137526117
109.2952599	-358.7024235072028	298.372762622912	-607.4326562007884	0.2341366603171506	0.04326292228651554	-1.326684523481465	411.6251451513535	-20.43153179581756	-11.80953829969345	5.899560354604904	2.451982624139334	1.987972377786656	0	409.8363761428144	19.69955765666975	-27.38462986733798	9.793848132074926	-0.4439473045988533	4.250290820099795	0	-21.37711699760957	1.659277491615732	3.206407148933037	0	0	0	89.92689189242994	-14.99999171227102	-9.29938780552641e-05	75.00017555024027	45.00000025534052	0	5.000000137526117	89.97079199238347	-15.0000829353423	-8.474185042236607e-05	75.00017555658926	45.00000025534052	0	5.000000137526117
109.4622448	-425.4884079002202	268.3625046465084	-680.9242903410101	0.2341366603171506	0.04326292228651554	-1.326684523481465	443.0193090103585	-17.88369614862638	-1.421161252913085	5.899560354604904	2.451982624139334	1.987972377786656	0	441.1433973113732	17.46754133810759	-37.81623284083999	9.793848132074926	-0.4439473045988533	4.250290820099795	0	-21.37711699760957	1.659277491615732	3.206407148933037	0	0	0	89.9276555509277	-14.99999196357689	-8.917398705010022e-05	75.00017556755829	45.00000025534052	0	5.000000137526117	89.97109709273327	-15.00008041703556	-8.126092630928702e-05	75.00017557353422	45.00000025534052	0	5.000000137526117
109.6290392	-354.0807212305585	231.0398649200158	-618.4884989466302	0.2341366603171506	0.04326292228651554	-1.326684523481465	482.0085482557623	-7.515586733286648	8.639434913596421	5.899560354604904	2.451982624139334	1.987972377786656	0	480.1574841732756	7.423706357780353	-48.20134243426591	9.793848132074926	-0.4439473045988533	4.250290820099795	0	-21.37711699760957	1.659277491615732	3.206407148933037	0	0	0	89.92765787792453	-14.99999196432992	-8.91626242202132e-05	75.0001755676092	45.00000025534052	0	5.000000137526117	89.97109802242588	-15.00008040948975	-8.125057180194079e-05	75.00017557358414	45.00000025534052	0	5.000000137526117
109.795981	-351.4251910838977	226.0724181801101	-618.8853930321737	0.2341366603171506	0.04326292228651554	-1.326684523481465	486.6235619342319	-4.022287083807219	9.526965456417477	5.899560354604904	2.451982624139334	1.987972377786656	0	484.783190726337	3.957590901002615	-49.19469936340787	9.793848132074926	-0.4439473045988533	4.250290820099795	0	-21.37711699760957	1.659277491615732	3.206407148933037	0	0	0	89.92765882460563	-14.99999196463604	-8.915800608113854e-05	75.00017556762992	45.00000025534052	0	5.000000137526117	89.97109840064832	-15.00008040642219	-8.124636344814754e-05	75.00017557360439	45.00000025534052	0	5.000000137526117
109.962875	-347.5100676980724	210.9982935890438	-621.8260947799087	0.2341366603171506	0.04326292228651554	-1.326684523481465	500.9922401406787	3.680369702493476	9.821365263242031	5.899560354604904	2.451982624139334	1.987972377786656	0	499.1495726951442	-3.729017020585004	-49.73042919445109	9.793848132074926	-0.4439473045988533	4.250290820099795	0	-21.37711699760957	1.659277491615732	3.206407148933037	0	0	0	89.92765976717205	-14.9999919649406	-8.915341262025808e-05	75.00017556765046	45.00000025534052	0	5.000000137526117	89.9710987772269	-15.0000804033703	-8.124217758163937e-05	75.00017557362457	45.00000025534052	0	5.000000137526117
